<svg width="169" height="119" viewBox="0 0 169 119" fill="none" xmlns="http://www.w3.org/2000/svg">
<g style="mix-blend-mode:multiply">
<path d="M119.848 93.0268V90.2739L106.588 77.7056C113.308 70.908 117.258 62.6174 117.258 53.6597C117.254 52.5982 117.193 51.5377 117.078 50.4833C117.193 49.4784 117.253 48.4673 117.258 47.455C117.258 25.4421 91.1778 7.59033 59.0078 7.59033C26.8378 7.59033 0.757812 25.4845 0.757812 47.4974C0.762659 48.5096 0.822759 49.5207 0.937812 50.5256C0.82216 51.5801 0.762067 52.6406 0.757812 53.7021C0.757813 76.7421 26.8378 95.4198 59.0078 95.4198C69.5642 95.4847 80.0273 93.3251 89.7878 89.0668V89.1727L105.058 104.176L108.658 102.482L148.358 139.721L160.358 132.172V128.635L119.848 93.0268ZM58.9978 21.355C82.4178 21.355 101.668 33.8809 103.928 49.9433C101.678 65.2221 82.4278 77.1868 58.9978 77.1868C35.5678 77.1868 16.3378 65.2221 14.0878 49.9115C16.3378 33.8809 35.5878 21.355 58.9978 21.355Z" fill="#9D9D9C"/>
</g>
<path d="M71.0547 5.03906C38.8847 5.03906 12.8047 23.7167 12.8047 46.7567C12.8047 69.7967 38.8847 88.4638 71.0547 88.4638C103.225 88.4638 129.315 69.7967 129.315 46.7567C129.315 23.7167 103.235 5.03906 71.0547 5.03906ZM71.0547 77.8332C46.1247 77.8332 25.9047 63.6344 25.9047 46.132C25.9047 28.6297 46.1247 14.4202 71.0547 14.4202C95.9847 14.4202 116.205 28.6191 116.205 46.1849C116.205 63.7508 95.9947 77.8332 71.0547 77.8332Z" fill="#14181E"/>
<path opacity="0.5" d="M116.206 39.959C116.206 56.6884 95.9962 70.2943 71.0562 70.2943C46.1162 70.2943 25.9062 56.6884 25.9062 39.959C25.9062 23.2295 46.1262 9.66602 71.0562 9.66602C95.9863 9.66602 116.206 23.2295 116.206 39.959Z" fill="#6EBEBF"/>
<path opacity="0.5" d="M108.358 22.9008C108.16 25.6288 107.481 28.2935 106.358 30.7573C100.588 43.4632 84.4875 47.1797 70.5875 44.8079C57.3475 42.5526 42.9975 34.982 44.9975 21.0373C45.3078 18.8177 45.8374 16.6387 46.5775 14.5361C34.1675 19.9361 25.9375 29.2961 25.9375 39.9479C25.9075 56.6879 46.1275 70.2938 71.0575 70.2938C95.9875 70.2938 116.208 56.7303 116.208 40.0008C116.208 33.6267 113.308 27.7608 108.358 22.9008Z" fill="#6EBEBF"/>
<path opacity="0.5" d="M55.4203 11.5719C53.5573 14.3553 52.4631 17.633 52.2603 21.0378C51.8703 32.4413 62.6403 37.979 74.3403 38.7625C88.8203 39.7366 104.86 31.9437 100.95 17.2895C92.9503 12.5672 82.5403 9.66602 71.0603 9.66602C65.7953 9.66595 60.5476 10.3054 55.4203 11.5719Z" fill="white"/>
<path d="M71.0547 0.697754C38.8847 0.697754 12.8047 18.5495 12.8047 40.5625C12.8047 62.5754 38.8847 80.4166 71.0547 80.4166C103.225 80.4166 129.315 62.5648 129.315 40.5625C129.315 18.5601 103.235 0.697754 71.0547 0.697754ZM71.0547 70.2519C46.1247 70.2942 25.9047 56.6883 25.9047 39.9589C25.9047 23.2295 46.1247 9.66599 71.0547 9.66599C95.9847 9.66599 116.205 23.2295 116.205 39.9589C116.205 56.6883 95.9947 70.2942 71.0547 70.2942V70.2519Z" fill="#31373F"/>
<path d="M101.836 76.8691V82.2586L117.106 97.2833L116.786 90.295L101.836 76.8691Z" fill="#7C7C7B"/>
<path d="M101.836 76.8695C101.836 76.8695 106.996 66.4189 117.116 69.3625L131.906 83.3389C131.906 83.3389 124.336 80.6707 116.786 90.2954L101.836 76.8695Z" fill="#9B9B9A"/>
<path d="M117.119 97.2834L131.909 90.2952V83.3387C131.909 83.3387 124.159 79.9082 116.789 90.2952L117.119 97.2834Z" fill="#BEBEBE"/>
<path d="M160.412 127.227L119.602 89.1411V94.5305L160.412 132.828V127.227Z" fill="#8D1F14"/>
<path d="M119.602 89.1412C120.799 87.3988 122.44 86.0534 124.333 85.2621C126.226 84.4709 128.293 84.2665 130.292 84.673L172.472 121.732C172.472 121.732 168.152 118.301 160.412 127.259L119.602 89.1412Z" fill="#CD1517"/>
<path d="M160.406 132.828L172.466 125.268V121.7C172.466 121.7 167.786 117.465 160.406 127.227V132.828Z" fill="#DE3C26"/>
</svg>
